<svg width="31" height="33" viewBox="0 0 31 33" fill="none" xmlns="http://www.w3.org/2000/svg">
    <path
        d="M18.1828 12.6308C17.2533 11.1217 15.0595 11.1217 14.13 12.6308C13.7094 13.3138 12.9731 13.7389 12.1713 13.7617C10.3996 13.8121 9.30271 15.712 10.1449 17.2715C10.5261 17.9773 10.5261 18.8275 10.1449 19.5333C9.30271 21.0928 10.3996 22.9927 12.1713 23.0431C12.9731 23.0659 13.7094 23.491 14.13 24.1739C15.0595 25.6831 17.2533 25.6831 18.1828 24.1739C18.6034 23.491 19.3398 23.0659 20.1415 23.0431C21.9132 22.9927 23.0101 21.0928 22.1679 19.5333C21.7868 18.8275 21.7868 17.9773 22.1679 17.2715C23.0101 15.712 21.9132 13.8121 20.1415 13.7617C19.3398 13.7389 18.6034 13.3138 18.1828 12.6308Z"
        fill="#050505" />
    <path fill-rule="evenodd" clip-rule="evenodd"
        d="M10.4601 2.73934L4.41899 7.27019C2.1372 8.98154 0.794312 11.6673 0.794312 14.5196V23.5813C0.794312 28.5859 4.85138 32.643 9.85602 32.643H21.9383C26.9429 32.643 31 28.5859 31 23.5813V14.5196C31 11.6673 29.6571 8.98154 27.3753 7.27019L21.3342 2.73934C18.1122 0.322889 13.6821 0.322888 10.4601 2.73934ZM19.5218 5.1558C17.3739 3.54483 14.4204 3.54483 12.2725 5.1558L6.23133 9.68665C4.71014 10.8275 3.81488 12.6181 3.81488 14.5196V23.5813C3.81488 26.9177 6.51959 29.6224 9.85602 29.6224H21.9383C25.2747 29.6224 27.9794 26.9177 27.9794 23.5813V14.5196C27.9794 12.6181 27.0842 10.8275 25.563 9.68665L19.5218 5.1558Z"
        fill="#050505" />
</svg>