<svg width="24" height="24" viewBox="0 0 24 24" fill="none" xmlns="http://www.w3.org/2000/svg">
  <path
    d="M7 11H10C10.2833 11 10.521 10.904 10.713 10.712C10.9043 10.5207 11 10.2833 11 10C11 9.71667 10.9043 9.479 10.713 9.287C10.521 9.09567 10.2833 9 10 9H7C6.71667 9 6.479 9.09567 6.287 9.287C6.09567 9.479 6 9.71667 6 10C6 10.2833 6.09567 10.5207 6.287 10.712C6.479 10.904 6.71667 11 7 11ZM4 20C3.45 20 2.97933 19.8043 2.588 19.413C2.196 19.021 2 18.55 2 18V6C2 5.45 2.196 4.97933 2.588 4.588C2.97933 4.196 3.45 4 4 4H20C20.4333 4 20.825 4.129 21.175 4.387C21.525 4.64567 21.7667 4.975 21.9 5.375C21.6167 5.24167 21.3127 5.146 20.988 5.088C20.6627 5.02933 20.3333 5 20 5C18.6167 5 17.4373 5.48767 16.462 6.463C15.4873 7.43767 15 8.61667 15 10C15 10.3667 15.0333 10.7167 15.1 11.05C15.1667 11.3833 15.2667 11.7 15.4 12H14C13.1667 12 12.4583 12.2917 11.875 12.875C11.2917 13.4583 11 14.1667 11 15V16C10.3667 16.45 9.875 17.0207 9.525 17.712C9.175 18.404 9 19.1667 9 20H4ZM14 21C14.2833 21 14.521 20.904 14.713 20.712C14.9043 20.5207 15 20.2833 15 20C15 19.7167 14.9043 19.4793 14.713 19.288C14.521 19.096 14.2833 19 14 19C13.7167 19 13.4793 19.096 13.288 19.288C13.096 19.4793 13 19.7167 13 20C13 20.2833 13.096 20.5207 13.288 20.712C13.4793 20.904 13.7167 21 14 21ZM20 11C20.2833 11 20.5207 10.904 20.712 10.712C20.904 10.5207 21 10.2833 21 10C21 9.71667 20.904 9.479 20.712 9.287C20.5207 9.09567 20.2833 9 20 9C19.7167 9 19.4793 9.09567 19.288 9.287C19.096 9.479 19 9.71667 19 10C19 10.2833 19.096 10.5207 19.288 10.712C19.4793 10.904 19.7167 11 20 11ZM14 23C13.1667 23 12.4583 22.7083 11.875 22.125C11.2917 21.5417 11 20.8333 11 20C11 19.35 11.1873 18.7667 11.562 18.25C11.9373 17.7333 12.4167 17.375 13 17.175V15C13 14.7167 13.096 14.479 13.288 14.287C13.4793 14.0957 13.7167 14 14 14H19V12.825C18.4167 12.625 17.9373 12.2667 17.562 11.75C17.1873 11.2333 17 10.65 17 10C17 9.16667 17.2917 8.45833 17.875 7.875C18.4583 7.29167 19.1667 7 20 7C20.8333 7 21.5417 7.29167 22.125 7.875C22.7083 8.45833 23 9.16667 23 10C23 10.65 22.8127 11.2333 22.438 11.75C22.0627 12.2667 21.5833 12.625 21 12.825V15C21 15.2833 20.904 15.5207 20.712 15.712C20.5207 15.904 20.2833 16 20 16H15V17.175C15.5833 17.375 16.0627 17.7333 16.438 18.25C16.8127 18.7667 17 19.35 17 20C17 20.8333 16.7083 21.5417 16.125 22.125C15.5417 22.7083 14.8333 23 14 23ZM10 15C10.2833 15 10.521 14.904 10.713 14.712C10.9043 14.5207 11 14.2833 11 14C11 13.7167 10.9043 13.479 10.713 13.287C10.521 13.0957 10.2833 13 10 13H7C6.71667 13 6.479 13.0957 6.287 13.287C6.09567 13.479 6 13.7167 6 14C6 14.2833 6.09567 14.5207 6.287 14.712C6.479 14.904 6.71667 15 7 15H10Z"
    fill="black" />
</svg>