<svg width="24" height="25" viewBox="0 0 24 25" fill="none" xmlns="http://www.w3.org/2000/svg">
    <g clip-path="url(#clip0_1352_659)">
        <path
            d="M5.00007 6.5H19.0001C19.5501 6.5 20.0001 6.05 20.0001 5.5C20.0001 4.95 19.5501 4.5 19.0001 4.5H5.00007C4.45007 4.5 4.00007 4.95 4.00007 5.5C4.00007 6.05 4.45007 6.5 5.00007 6.5ZM20.1601 8.3C20.0701 7.84 19.6601 7.5 19.1801 7.5H4.82007C4.34007 7.5 3.93007 7.84 3.84007 8.3L2.84007 13.3C2.72007 13.92 3.19007 14.5 3.82007 14.5H4.00007V19.5C4.00007 20.05 4.45007 20.5 5.00007 20.5H13.0001C13.5501 20.5 14.0001 20.05 14.0001 19.5V14.5H18.0001V19.5C18.0001 20.05 18.4501 20.5 19.0001 20.5C19.5501 20.5 20.0001 20.05 20.0001 19.5V14.5H20.1801C20.8101 14.5 21.2801 13.92 21.1601 13.3L20.1601 8.3ZM12.0001 18.5H6.00007V14.5H12.0001V18.5Z"
            fill="#050505" />
    </g>
    <defs>
        <clipPath id="clip0_1352_659">
            <rect width="24" height="24" fill="white" transform="translate(0 0.5)" />
        </clipPath>
    </defs>
</svg>