<svg width="24" height="25" viewBox="0 0 24 25" fill="none" xmlns="http://www.w3.org/2000/svg">
    <path
        d="M5.00001 6.5C4.71668 6.5 4.47901 6.40433 4.28701 6.213C4.09568 6.021 4.00001 5.78333 4.00001 5.5C4.00001 5.21667 4.09568 4.979 4.28701 4.787C4.47901 4.59567 4.71668 4.5 5.00001 4.5H19C19.2833 4.5 19.5207 4.59567 19.712 4.787C19.904 4.979 20 5.21667 20 5.5C20 5.78333 19.904 6.021 19.712 6.213C19.5207 6.40433 19.2833 6.5 19 6.5H5.00001ZM5.00001 20.5C4.71668 20.5 4.47901 20.404 4.28701 20.212C4.09568 20.0207 4.00001 19.7833 4.00001 19.5V14.5H3.82501C3.50835 14.5 3.25001 14.379 3.05001 14.137C2.85001 13.8957 2.78335 13.6167 2.85001 13.3L3.85001 8.3C3.90001 8.06667 4.01668 7.875 4.20001 7.725C4.38335 7.575 4.59168 7.5 4.82501 7.5H19.175C19.4083 7.5 19.6167 7.575 19.8 7.725C19.9833 7.875 20.1 8.06667 20.15 8.3L21.15 13.3C21.2167 13.6167 21.15 13.8957 20.95 14.137C20.75 14.379 20.4917 14.5 20.175 14.5H20V19.5C20 19.7833 19.904 20.0207 19.712 20.212C19.5207 20.404 19.2833 20.5 19 20.5C18.7167 20.5 18.4793 20.404 18.288 20.212C18.096 20.0207 18 19.7833 18 19.5V14.5H14V19.5C14 19.7833 13.9043 20.0207 13.713 20.212C13.521 20.404 13.2833 20.5 13 20.5H5.00001ZM6.00001 18.5H12V14.5H6.00001V18.5ZM5.05001 12.5H18.95L18.35 9.5H5.65001L5.05001 12.5Z"
        fill="#C7C6C4" />
</svg>