<svg width="24" height="25" viewBox="0 0 24 25" fill="none" xmlns="http://www.w3.org/2000/svg">
  <path
    d="M4 12.5V18.5V6.5V12.5ZM14 21.5C14.2833 21.5 14.521 21.404 14.713 21.212C14.9043 21.0207 15 20.7833 15 20.5C15 20.2167 14.9043 19.9793 14.713 19.788C14.521 19.596 14.2833 19.5 14 19.5C13.7167 19.5 13.4793 19.596 13.288 19.788C13.096 19.9793 13 20.2167 13 20.5C13 20.7833 13.096 21.0207 13.288 21.212C13.4793 21.404 13.7167 21.5 14 21.5ZM20 11.5C20.2833 11.5 20.5207 11.404 20.712 11.212C20.904 11.0207 21 10.7833 21 10.5C21 10.2167 20.904 9.979 20.712 9.787C20.5207 9.59567 20.2833 9.5 20 9.5C19.7167 9.5 19.4793 9.59567 19.288 9.787C19.096 9.979 19 10.2167 19 10.5C19 10.7833 19.096 11.0207 19.288 11.212C19.4793 11.404 19.7167 11.5 20 11.5ZM6 11.5H11V9.5H6V11.5ZM6 15.5H11V13.5H6V15.5ZM4 20.5C3.45 20.5 2.97933 20.3043 2.588 19.913C2.196 19.521 2 19.05 2 18.5V6.5C2 5.95 2.196 5.47933 2.588 5.088C2.97933 4.696 3.45 4.5 4 4.5H20C20.55 4.5 21.021 4.696 21.413 5.088C21.8043 5.47933 22 5.95 22 6.5H4V18.5H9V20.5H4ZM14 23.5C13.1667 23.5 12.4583 23.2083 11.875 22.625C11.2917 22.0417 11 21.3333 11 20.5C11 19.85 11.1873 19.2667 11.562 18.75C11.9373 18.2333 12.4167 17.875 13 17.675V14.5H19V13.325C18.4167 13.125 17.9373 12.7667 17.562 12.25C17.1873 11.7333 17 11.15 17 10.5C17 9.66667 17.2917 8.95833 17.875 8.375C18.4583 7.79167 19.1667 7.5 20 7.5C20.8333 7.5 21.5417 7.79167 22.125 8.375C22.7083 8.95833 23 9.66667 23 10.5C23 11.15 22.8127 11.7333 22.438 12.25C22.0627 12.7667 21.5833 13.125 21 13.325V16.5H15V17.675C15.5833 17.875 16.0627 18.2333 16.438 18.75C16.8127 19.2667 17 19.85 17 20.5C17 21.3333 16.7083 22.0417 16.125 22.625C15.5417 23.2083 14.8333 23.5 14 23.5Z"
    fill="#C7C6C4" />
</svg>